<?xml version="1.0" encoding="utf-8"?>
<!-- Generator: Adobe Illustrator 20.1.0, SVG Export Plug-In . SVG Version: 6.00 Build 0)  -->
<svg version="1.1" id="Layer_1" xmlns="http://www.w3.org/2000/svg" xmlns:xlink="http://www.w3.org/1999/xlink" x="0px" y="0px"
	 viewBox="0 0 93.6 50.4" style="enable-background:new 0 0 93.6 50.4;" xml:space="preserve">
<style type="text/css">
	.st0{fill:#FFFFFF;}
</style>
<title>snail</title>
<path class="st0" d="M88.5,1c-2.8,0-5.1,2.3-5.1,5.1c0,1.8,0.9,3.4,2.4,4.4l-3.2,10.2L81,20.2l-2.1-7.8c2.5-1.3,3.5-4.4,2.2-7
	s-4.4-3.5-7-2.2c-2.5,1.3-3.5,4.4-2.2,7c0.9,1.7,2.6,2.8,4.5,2.8h0.1l2,7.3c-3.2,0.8-5.9,3.8-8.3,6.5s-5.4,6.1-8.6,6.5
	c-0.8-8.8-3.7-15.7-8.8-20.7C47.6,7.8,40.8,5,33.6,4.8c-12.7,0-23.1,10.3-23.1,23.1c0,4.4,1.7,8.5,4.8,11.6c-8,2.3-13.1,5.1-15.1,8
	c-0.4,0.6-0.2,1.4,0.4,1.8c0.2,0.1,0.4,0.2,0.6,0.2H83c0.6,0,1.1-0.5,1.2-1.1c0.1-0.6-0.3-1.2-0.9-1.4c-2.1-0.6-5.3-2.1-6-3.4
	c-0.1-0.2-0.1-0.5,0-0.7c0.8-1.3,1.7-2.5,2.7-3.6c3.3-3.9,7.8-9.4,7.2-13.7c-0.2-1.6-1.2-3-2.5-3.9h-0.1l3.4-10.6h0.4
	c2.8,0,5.1-2.3,5.1-5.1C93.6,3.2,91.3,1,88.5,1z M73.8,7.9c0-1.5,1.2-2.7,2.7-2.7l0,0c1.5-0.3,2.9,0.7,3.2,2.2
	c0.3,1.5-0.7,2.9-2.2,3.2c-0.3,0.1-0.7,0.1-1,0C75,10.5,73.8,9.4,73.8,7.9z M33.5,7.3c0.9,0,10.4,0.2,17.5,7.2
	c5.3,5.2,8,12.8,8.3,22.6H40.5c1.8-2.7,2.8-5.9,2.8-9.2c0-5.5-4.5-10-10-10s-10,4.5-10,10c0,0.6,0.5,1.2,1.2,1.2l0,0
	c0.6,0,1.1-0.5,1.2-1.2c0-4.2,3.4-7.5,7.5-7.5c4.2,0,7.5,3.4,7.5,7.5c0,7.8-6.3,14.1-14.1,14.1s-14.1-6.3-14.1-14.1
	C12.8,16.5,22.1,7.3,33.5,7.3z M85,26c0.5,3.3-3.8,8.4-6.6,11.8c-1.2,1.2-2.2,2.6-3,4.1c-0.4,0.9-0.4,1.9,0,2.7
	c0.5,1,1.3,1.8,2.2,2.4H4.1c2.6-2,7.2-3.9,13.4-5.6c6.5,4.6,15.4,3.7,21-2h22c0.6,0,1.2-0.5,1.2-1.2c0-0.8,0-1.6-0.1-2.4
	c4.2-0.6,7.4-4.2,10.4-7.4c4.3-4.9,7.1-7.6,11.5-4.7C84.3,24.2,84.9,25,85,26z M88.5,8.8c-1.5,0-2.7-1.2-2.7-2.7v0
	c0-1.5,1.2-2.7,2.7-2.7c1.5,0,2.7,1.2,2.7,2.7C91.3,7.6,90,8.8,88.5,8.8C88.5,8.8,88.5,8.8,88.5,8.8z"/>
</svg>
