<svg xmlns="http://www.w3.org/2000/svg" viewBox="0 0 93.6 50.4" enable-background="new 0 0 93.6 50.4"><style type="text/css">.st0{fill:#FFFFFF;}</style><title>snail</title><path class="st0" d="M88.5 1c-2.8 0-5.1 2.3-5.1 5.1 0 1.8.9 3.4 2.4 4.4l-3.2 10.2-1.6-.5-2.1-7.8c2.5-1.3 3.5-4.4 2.2-7s-4.4-3.5-7-2.2c-2.5 1.3-3.5 4.4-2.2 7 .9 1.7 2.6 2.8 4.5 2.8h.1l2 7.3c-3.2.8-5.9 3.8-8.3 6.5s-5.4 6.1-8.6 6.5c-.8-8.8-3.7-15.7-8.8-20.7-5.2-4.8-12-7.6-19.2-7.8-12.7 0-23.1 10.3-23.1 23.1 0 4.4 1.7 8.5 4.8 11.6-8 2.3-13.1 5.1-15.1 8-.4.6-.2 1.4.4 1.8.2.1.4.2.6.2h81.8c.6 0 1.1-.5 1.2-1.1.1-.6-.3-1.2-.9-1.4-2.1-.6-5.3-2.1-6-3.4-.1-.2-.1-.5 0-.7.8-1.3 1.7-2.5 2.7-3.6 3.3-3.9 7.8-9.4 7.2-13.7-.2-1.6-1.2-3-2.5-3.9h-.1l3.4-10.6h.4c2.8 0 5.1-2.3 5.1-5.1.1-2.8-2.2-5-5-5zm-14.7 6.9c0-1.5 1.2-2.7 2.7-2.7 1.5-.3 2.9.7 3.2 2.2.3 1.5-.7 2.9-2.2 3.2-.3.1-.7.1-1 0-1.5-.1-2.7-1.2-2.7-2.7zm-40.3-.6c.9 0 10.4.2 17.5 7.2 5.3 5.2 8 12.8 8.3 22.6h-18.8c1.8-2.7 2.8-5.9 2.8-9.2 0-5.5-4.5-10-10-10s-10 4.5-10 10c0 .6.5 1.2 1.2 1.2.6 0 1.1-.5 1.2-1.2 0-4.2 3.4-7.5 7.5-7.5 4.2 0 7.5 3.4 7.5 7.5 0 7.8-6.3 14.1-14.1 14.1s-14.1-6.3-14.1-14.1c.3-11.4 9.6-20.6 21-20.6zm51.5 18.7c.5 3.3-3.8 8.4-6.6 11.8-1.2 1.2-2.2 2.6-3 4.1-.4.9-.4 1.9 0 2.7.5 1 1.3 1.8 2.2 2.4h-73.5c2.6-2 7.2-3.9 13.4-5.6 6.5 4.6 15.4 3.7 21-2h22c.6 0 1.2-.5 1.2-1.2 0-.8 0-1.6-.1-2.4 4.2-.6 7.4-4.2 10.4-7.4 4.3-4.9 7.1-7.6 11.5-4.7.8.5 1.4 1.3 1.5 2.3zm3.5-17.2c-1.5 0-2.7-1.2-2.7-2.7 0-1.5 1.2-2.7 2.7-2.7 1.5 0 2.7 1.2 2.7 2.7.1 1.5-1.2 2.7-2.7 2.7z"/></svg>